HIERARCHY
ROOT simHips
{
  OFFSET 6.13146 95.3961 -0.669452
  CHANNELS 6 Xposition Yposition Zposition Zrotation Xrotation Yrotation
  JOINT simSpine
  {
    OFFSET -0.000360269 21.3001 -0.0169217
    CHANNELS 3 Zrotation Xrotation Yrotation
    JOINT simLeftArm
    {
      OFFSET 13.5181 21.3012 -2.3511e-005
      CHANNELS 3 Zrotation Xrotation Yrotation
      JOINT simLeftForeArm
      {
        OFFSET 24.5783 0 -6.3921e-005
        CHANNELS 3 Zrotation Xrotation Yrotation
        JOINT simLeftHand
        {
          OFFSET 24.5783 0 0
          CHANNELS 3 Zrotation Xrotation Yrotation
          End Site
          {
            OFFSET 7.32568 1.52588e-005 0.0169305
          }
        }
      }
    }
    JOINT simHead
    {
      OFFSET 0 27.4458 -0.00488811
      CHANNELS 3 Zrotation Xrotation Yrotation
      End Site
      {
        OFFSET 0 0 0
      }
    }
    JOINT simRightArm
    {
      OFFSET -13.5174 21.3012 -1.52733e-005
      CHANNELS 3 Zrotation Xrotation Yrotation
      JOINT simRightForeArm
      {
        OFFSET -24.5783 -0.000552281 0.000112897
        CHANNELS 3 Zrotation Xrotation Yrotation
        JOINT simRightHand
        {
          OFFSET -24.5783 0 1.19926e-005
          CHANNELS 3 Zrotation Xrotation Yrotation
          End Site
          {
            OFFSET -7.32568 1.52588e-005 0.0169305
          }
        }
      }
    }
  }
  JOINT simRightUpLeg
  {
    OFFSET -8.44614 -9.41038 0.835682
    CHANNELS 3 Zrotation Xrotation Yrotation
    JOINT simRightLeg
    {
      OFFSET -3.23466e-005 -40.9639 0
      CHANNELS 3 Zrotation Xrotation Yrotation
      JOINT simRightFoot
      {
        OFFSET 0 -40.9639 0
        CHANNELS 3 Zrotation Xrotation Yrotation
        End Site
        {
          OFFSET 0.50614 -9.67405 14.6709
        }
      }
    }
  }
  JOINT simLeftUpLeg
  {
    OFFSET 8.44614 -9.41038 0.835681
    CHANNELS 3 Zrotation Xrotation Yrotation
    JOINT simLeftLeg
    {
      OFFSET -0.00018133 -40.964 6.2497e-005
      CHANNELS 3 Zrotation Xrotation Yrotation
      JOINT simLeftFoot
      {
        OFFSET 0 -40.9639 0
        CHANNELS 3 Zrotation Xrotation Yrotation
        End Site
        {
          OFFSET -0.50614 -9.67405 14.6709
        }
      }
    }
  }
}
MOTION
Frames:	11
Frame Time:	0.0333333
165.43 95.9501 -26.6539 2.46982 -6.85606 -32.6528 2.41268 5.82865 9.14945 -67.5879 -2.31399 12.7369 -7.8337e-005 1.75377e-005 -76.7106 -31.4724 -47.4743 -40.6639 -5.6839 -2.73233 4.05526 53.3736 8.58419 40.2493 -0.00549113 -1.61336e-006 96.0694 174.481 -20.7464 -146.207 -28.3324 19.8522 -24.1254 -3.80062e-006 28.0877 0.0249327 27.7821 -15.5611 2.17654 22.7587 -21.2586 11.0079 -0.00138029 36.8666 -0.128019 -20.1654 -0.843678 -2.49838 
165.097 95.8238 -27.0602 2.22279 -7.83587 -32.8726 3.22085 5.39644 8.65638 -68.0299 -2.42492 14.005 -7.81714e-005 1.6821e-005 -77.263 -31.95 -47.0718 -41.2435 -6.21665 -1.82273 4.32344 53.4906 8.53468 39.612 -0.00399469 -2.18673e-006 98.2394 175.333 -20.3238 -143.937 -28.6009 20.6593 -23.5139 8.20351e-006 28.3477 0.0326685 27.9726 -16.4509 2.53503 22.5998 -20.1019 10.6662 -0.00123678 36.3653 -0.127279 -20.3364 -0.409229 -2.26337 
164.881 95.7067 -27.463 2.10953 -8.53122 -33.178 3.91987 5.10845 8.20597 -68.4112 -2.41469 15.0051 -7.80716e-005 1.63735e-005 -77.6073 -32.54 -46.7575 -41.9115 -6.82715 -1.43069 4.51345 53.5078 8.459 39.0604 -0.00193762 -2.75405e-006 100.398 175.648 -20.092 -142.441 -28.8558 21.1467 -23.1012 0.000408779 28.4489 0.0397801 28.154 -17.2348 2.94059 22.501 -19.2638 10.5505 -0.00108409 35.9392 -0.12642 -20.4632 -0.13398 -2.02814 
164.825 95.6044 -27.8548 2.17054 -8.96974 -33.5509 4.37846 5.05434 7.68621 -68.6848 -2.48916 15.6922 -7.80179e-005 1.61271e-005 -77.7967 -33.3372 -46.3293 -42.9378 -7.2501 -1.43343 5.14314 53.3784 8.4477 38.5274 0.00277746 -3.31222e-006 102.537 175.432 -20.0124 -142.058 -29.1933 21.2313 -22.863 -1.4017e-005 28.5452 0.04676 28.3619 -17.9634 3.39427 22.3924 -18.8559 10.638 -0.000659535 35.7016 -0.125358 -20.514 0.146776 -1.77242 
164.862 95.5295 -28.2186 2.34289 -9.05564 -34.0126 4.75887 5.01597 7.24031 -68.9852 -2.44208 16.378 -7.79389e-005 1.57575e-005 -78.0805 -33.5518 -46.0428 -43.9647 -7.70835 -1.55621 5.2344 53.1039 8.45468 38.0982 -0.0113826 -3.85402e-006 104.63 175.426 -20.037 -140.762 -29.447 20.8571 -22.687 -0.00129336 28.6587 0.0526712 28.5766 -18.5778 3.81844 22.4229 -18.8458 10.9592 -0.000128668 35.6097 -0.123761 -20.5174 0.407334 -1.52513 
165.001 95.4894 -28.5513 2.54151 -8.83103 -34.4772 5.20909 5.0158 6.77859 -69.3973 -2.26651 16.9515 -7.79096e-005 1.5618e-005 -78.1876 -33.371 -45.7845 -44.6393 -7.96412 -1.72812 5.4116 52.7696 8.34536 37.5638 -0.00390563 -4.3053e-006 106.389 175.604 -19.8795 -140.666 -29.5467 20.1587 -22.6317 -0.00228231 28.737 0.0571109 28.765 -19.0255 4.17893 22.5941 -19.2055 11.3815 0.000462444 35.6664 -0.121369 -20.4724 0.621826 -1.2758 
165.265 95.4886 -28.8471 2.74035 -8.27705 -34.9901 5.81416 5.12654 6.41821 -69.9022 -1.92513 16.9014 -7.80578e-005 1.63104e-005 -77.6558 -34.1924 -45.494 -46.0477 -8.06319 -1.94798 5.88565 52.5772 8.02036 36.9395 -0.0032036 -4.69902e-006 107.936 175.747 -20.0645 -141.154 -29.4892 19.0879 -22.6468 -0.00260541 28.8396 0.0592652 28.8977 -19.3028 4.41639 22.9362 -19.8653 11.9553 2.84578e-005 35.8091 -0.116353 -20.3604 0.771622 -1.02408 
165.633 95.5286 -29.0886 3.02012 -7.443 -35.5104 6.24694 5.37734 6.0123 -70.2683 -1.647 16.6717 -7.81879e-005 1.68941e-005 -77.2067 -35.2248 -45.1112 -47.3721 -8.1106 -2.07532 6.36576 52.5653 7.76228 36.5037 -0.0698844 -4.92268e-006 108.821 174.551 -20.4211 -143.069 -29.3549 17.6917 -22.7681 -0.00276883 28.9533 0.0602733 28.9625 -19.4048 4.52803 23.366 -20.8133 12.6733 -1.67735e-005 36.0038 -0.110183 -20.1796 0.898469 -0.782613 
166.13 95.6044 -29.2534 3.37981 -6.35026 -35.9229 6.59408 5.66785 5.40955 -70.4976 -1.3559 16.5089 -7.82209e-005 1.70386e-005 -77.0954 -34.9656 -44.6535 -47.5329 -7.99001 -2.53161 6.69006 52.4774 7.63603 36.0994 -1.43968e-005 -5.05607e-006 109.351 172.189 -20.211 -145.386 -29.1648 16.0408 -22.9878 -0.00275677 29.0983 0.0601271 28.9932 -19.2385 4.49525 23.836 -22.1438 13.4312 -3.69555e-005 36.3447 -0.102806 -19.9191 0.98855 -0.554713 
166.723 95.6939 -29.3628 3.81299 -4.99575 -36.3254 6.87634 6.0202 4.91268 -70.6364 -0.813544 16.1024 -7.82433e-005 1.71363e-005 -77.0201 -34.1889 -44.6006 -47.8386 -7.52117 -3.2153 7.13149 52.7064 7.05603 35.5368 9.29167e-007 -5.24334e-006 110.098 170.864 -18.8557 -147.289 -28.9137 14.0879 -23.2951 -0.00195692 29.2761 0.0576398 28.9675 -18.9408 4.3671 24.4783 -23.8194 14.4328 -4.11771e-005 36.8537 -0.0947869 -19.6013 1.04762 -0.419279 
167.402 95.7809 -29.4326 4.31244 -3.38061 -36.7393 7.15006 6.40128 4.59754 -70.6906 -0.123822 15.6779 -7.82338e-005 1.70948e-005 -77.0521 -33.3427 -44.4849 -47.94 -7.05688 -4.02555 7.41479 53.0791 6.22431 35.1049 -1.42957e-005 -5.335e-006 110.465 170.34 -17.6433 -148.724 -28.5991 11.8378 -23.663 -0.00098827 29.5 0.0541439 28.9103 -18.5848 4.15865 25.3203 -25.8065 15.6647 -1.23082e-007 37.4914 -0.0864715 -19.2491 1.06674 -0.33349 
